<mxfile host="app.diagrams.net" agent="Mozilla/5.0 (Windows NT 10.0; Win64; x64) AppleWebKit/537.36 (KHTML, like Gecko) Chrome/136.0.0.0 Safari/537.36" version="26.2.12">
  <diagram name="PaginÄƒ-1" id="K7ZkN5vFVRDfCoLSblhW">
    <mxGraphModel dx="1795" dy="815" grid="0" gridSize="10" guides="1" tooltips="1" connect="1" arrows="1" fold="1" page="0" pageScale="1" pageWidth="827" pageHeight="1169" math="0" shadow="0">
      <root>
        <mxCell id="0" />
        <mxCell id="1" parent="0" />
        <mxCell id="Bkob230-6VRAGTBJh4gk-1" value="Incoming UART message" style="rounded=0;whiteSpace=wrap;html=1;" vertex="1" parent="1">
          <mxGeometry x="68" y="34" width="120" height="60" as="geometry" />
        </mxCell>
        <mxCell id="Bkob230-6VRAGTBJh4gk-2" value="COBS Validation &amp;amp; Decoding" style="rounded=0;whiteSpace=wrap;html=1;" vertex="1" parent="1">
          <mxGeometry x="68" y="146" width="120" height="60" as="geometry" />
        </mxCell>
        <mxCell id="Bkob230-6VRAGTBJh4gk-3" value="SPP Header Decoding" style="rounded=0;whiteSpace=wrap;html=1;" vertex="1" parent="1">
          <mxGeometry x="68" y="256" width="120" height="60" as="geometry" />
        </mxCell>
        <mxCell id="Bkob230-6VRAGTBJh4gk-4" value="Correct Length of received message" style="rounded=0;whiteSpace=wrap;html=1;" vertex="1" parent="1">
          <mxGeometry x="68" y="357" width="120" height="60" as="geometry" />
        </mxCell>
        <mxCell id="Bkob230-6VRAGTBJh4gk-5" value="Checksum Check" style="rounded=0;whiteSpace=wrap;html=1;" vertex="1" parent="1">
          <mxGeometry x="68" y="454" width="120" height="60" as="geometry" />
        </mxCell>
        <mxCell id="Bkob230-6VRAGTBJh4gk-6" value="PUS Decode" style="rounded=0;whiteSpace=wrap;html=1;" vertex="1" parent="1">
          <mxGeometry x="68" y="548" width="120" height="60" as="geometry" />
        </mxCell>
        <mxCell id="Bkob230-6VRAGTBJh4gk-13" value="" style="endArrow=classic;html=1;rounded=0;exitX=1;exitY=0.5;exitDx=0;exitDy=0;entryX=0;entryY=0.5;entryDx=0;entryDy=0;" edge="1" parent="1" target="Bkob230-6VRAGTBJh4gk-14">
          <mxGeometry width="50" height="50" relative="1" as="geometry">
            <mxPoint x="189" y="178" as="sourcePoint" />
            <mxPoint x="287" y="181" as="targetPoint" />
          </mxGeometry>
        </mxCell>
        <mxCell id="Bkob230-6VRAGTBJh4gk-14" value="FAIL ACC&lt;div&gt;COBS_ERROR&lt;/div&gt;" style="rounded=0;whiteSpace=wrap;html=1;fillColor=#FF6666;" vertex="1" parent="1">
          <mxGeometry x="286" y="148" width="163" height="60" as="geometry" />
        </mxCell>
        <mxCell id="Bkob230-6VRAGTBJh4gk-16" value="FAIL ACC&lt;div&gt;SPP_DECODE_ERROR&lt;/div&gt;" style="rounded=0;whiteSpace=wrap;html=1;fillColor=#FF6666;" vertex="1" parent="1">
          <mxGeometry x="287" y="256" width="162" height="60" as="geometry" />
        </mxCell>
        <mxCell id="Bkob230-6VRAGTBJh4gk-17" value="" style="endArrow=classic;html=1;rounded=0;exitX=1;exitY=0.5;exitDx=0;exitDy=0;" edge="1" parent="1" source="Bkob230-6VRAGTBJh4gk-4">
          <mxGeometry width="50" height="50" relative="1" as="geometry">
            <mxPoint x="205" y="386.5" as="sourcePoint" />
            <mxPoint x="286" y="386.5" as="targetPoint" />
          </mxGeometry>
        </mxCell>
        <mxCell id="Bkob230-6VRAGTBJh4gk-18" value="FAIL ACC&lt;div&gt;DATA_LENGTH_MISMATCH_ERROR&lt;/div&gt;" style="rounded=0;whiteSpace=wrap;html=1;fillColor=#FF6666;" vertex="1" parent="1">
          <mxGeometry x="286" y="357" width="220" height="60" as="geometry" />
        </mxCell>
        <mxCell id="Bkob230-6VRAGTBJh4gk-19" value="" style="endArrow=classic;html=1;rounded=0;exitX=1;exitY=0.5;exitDx=0;exitDy=0;entryX=0;entryY=0.5;entryDx=0;entryDy=0;" edge="1" parent="1" source="Bkob230-6VRAGTBJh4gk-5" target="Bkob230-6VRAGTBJh4gk-20">
          <mxGeometry width="50" height="50" relative="1" as="geometry">
            <mxPoint x="202" y="483.5" as="sourcePoint" />
            <mxPoint x="283" y="483.5" as="targetPoint" />
          </mxGeometry>
        </mxCell>
        <mxCell id="Bkob230-6VRAGTBJh4gk-20" value="FAIL ACC&lt;div&gt;CRC_MISMATCH_ERROR&lt;/div&gt;" style="rounded=0;whiteSpace=wrap;html=1;fillColor=#FF6666;" vertex="1" parent="1">
          <mxGeometry x="286" y="454" width="163" height="60" as="geometry" />
        </mxCell>
        <mxCell id="Bkob230-6VRAGTBJh4gk-21" value="" style="endArrow=classic;html=1;rounded=0;exitX=1;exitY=0.5;exitDx=0;exitDy=0;" edge="1" parent="1" source="Bkob230-6VRAGTBJh4gk-6">
          <mxGeometry width="50" height="50" relative="1" as="geometry">
            <mxPoint x="205" y="577.5" as="sourcePoint" />
            <mxPoint x="286" y="577.5" as="targetPoint" />
          </mxGeometry>
        </mxCell>
        <mxCell id="Bkob230-6VRAGTBJh4gk-22" value="FAIL ACC&lt;div&gt;PUS_DECODE_ERROR&lt;/div&gt;" style="rounded=0;whiteSpace=wrap;html=1;fillColor=#FF6666;" vertex="1" parent="1">
          <mxGeometry x="286" y="546" width="162" height="60" as="geometry" />
        </mxCell>
        <mxCell id="Bkob230-6VRAGTBJh4gk-24" value="" style="endArrow=classic;html=1;rounded=0;exitX=0.5;exitY=1;exitDx=0;exitDy=0;entryX=0.5;entryY=0;entryDx=0;entryDy=0;" edge="1" parent="1" source="Bkob230-6VRAGTBJh4gk-1" target="Bkob230-6VRAGTBJh4gk-2">
          <mxGeometry width="50" height="50" relative="1" as="geometry">
            <mxPoint x="388" y="445" as="sourcePoint" />
            <mxPoint x="438" y="395" as="targetPoint" />
          </mxGeometry>
        </mxCell>
        <mxCell id="Bkob230-6VRAGTBJh4gk-25" value="" style="endArrow=classic;html=1;rounded=0;exitX=0.5;exitY=1;exitDx=0;exitDy=0;entryX=0.5;entryY=0;entryDx=0;entryDy=0;" edge="1" parent="1" source="Bkob230-6VRAGTBJh4gk-4" target="Bkob230-6VRAGTBJh4gk-5">
          <mxGeometry width="50" height="50" relative="1" as="geometry">
            <mxPoint x="242" y="414" as="sourcePoint" />
            <mxPoint x="242" y="466" as="targetPoint" />
          </mxGeometry>
        </mxCell>
        <mxCell id="Bkob230-6VRAGTBJh4gk-26" value="" style="endArrow=classic;html=1;rounded=0;exitX=0.5;exitY=1;exitDx=0;exitDy=0;entryX=0.5;entryY=0;entryDx=0;entryDy=0;" edge="1" parent="1" source="Bkob230-6VRAGTBJh4gk-3" target="Bkob230-6VRAGTBJh4gk-4">
          <mxGeometry width="50" height="50" relative="1" as="geometry">
            <mxPoint x="128" y="318" as="sourcePoint" />
            <mxPoint x="137" y="342" as="targetPoint" />
          </mxGeometry>
        </mxCell>
        <mxCell id="Bkob230-6VRAGTBJh4gk-27" value="" style="endArrow=classic;html=1;rounded=0;exitX=0.5;exitY=1;exitDx=0;exitDy=0;entryX=0.5;entryY=0;entryDx=0;entryDy=0;" edge="1" parent="1">
          <mxGeometry width="50" height="50" relative="1" as="geometry">
            <mxPoint x="127.5" y="206" as="sourcePoint" />
            <mxPoint x="127.5" y="258" as="targetPoint" />
          </mxGeometry>
        </mxCell>
        <mxCell id="Bkob230-6VRAGTBJh4gk-29" value="" style="endArrow=classic;html=1;rounded=0;exitX=0.5;exitY=1;exitDx=0;exitDy=0;entryX=0.5;entryY=0;entryDx=0;entryDy=0;" edge="1" parent="1" source="Bkob230-6VRAGTBJh4gk-5" target="Bkob230-6VRAGTBJh4gk-6">
          <mxGeometry width="50" height="50" relative="1" as="geometry">
            <mxPoint x="168" y="134" as="sourcePoint" />
            <mxPoint x="168" y="186" as="targetPoint" />
          </mxGeometry>
        </mxCell>
        <mxCell id="Bkob230-6VRAGTBJh4gk-30" value="PUS Service Supported" style="rounded=0;whiteSpace=wrap;html=1;" vertex="1" parent="1">
          <mxGeometry x="68" y="646" width="120" height="60" as="geometry" />
        </mxCell>
        <mxCell id="Bkob230-6VRAGTBJh4gk-31" value="FAIL ACC&lt;div&gt;UNSUPPORTED_SERVICE_ID_ERROR&lt;/div&gt;" style="rounded=0;whiteSpace=wrap;html=1;fillColor=#FF6666;" vertex="1" parent="1">
          <mxGeometry x="287" y="646" width="234" height="60" as="geometry" />
        </mxCell>
        <mxCell id="Bkob230-6VRAGTBJh4gk-32" value="" style="endArrow=classic;html=1;rounded=0;exitX=1;exitY=0.5;exitDx=0;exitDy=0;" edge="1" parent="1" source="Bkob230-6VRAGTBJh4gk-30">
          <mxGeometry width="50" height="50" relative="1" as="geometry">
            <mxPoint x="206" y="675.5" as="sourcePoint" />
            <mxPoint x="287" y="675.5" as="targetPoint" />
          </mxGeometry>
        </mxCell>
        <mxCell id="Bkob230-6VRAGTBJh4gk-33" value="Enough Data for PUS Service" style="rounded=0;whiteSpace=wrap;html=1;" vertex="1" parent="1">
          <mxGeometry x="68" y="743" width="120" height="60" as="geometry" />
        </mxCell>
        <mxCell id="Bkob230-6VRAGTBJh4gk-34" value="Correct Global State" style="rounded=0;whiteSpace=wrap;html=1;" vertex="1" parent="1">
          <mxGeometry x="68" y="829" width="120" height="60" as="geometry" />
        </mxCell>
        <mxCell id="Bkob230-6VRAGTBJh4gk-35" value="FAIL ACC&lt;div&gt;NOT_ENOUGH_DATA_ERROR&lt;/div&gt;" style="rounded=0;whiteSpace=wrap;html=1;fillColor=#FF6666;" vertex="1" parent="1">
          <mxGeometry x="286" y="743" width="206" height="60" as="geometry" />
        </mxCell>
        <mxCell id="Bkob230-6VRAGTBJh4gk-36" value="" style="endArrow=classic;html=1;rounded=0;exitX=1;exitY=0.5;exitDx=0;exitDy=0;entryX=0;entryY=0.5;entryDx=0;entryDy=0;" edge="1" parent="1" source="Bkob230-6VRAGTBJh4gk-33" target="Bkob230-6VRAGTBJh4gk-35">
          <mxGeometry width="50" height="50" relative="1" as="geometry">
            <mxPoint x="205" y="776.5" as="sourcePoint" />
            <mxPoint x="286" y="776.5" as="targetPoint" />
          </mxGeometry>
        </mxCell>
        <mxCell id="Bkob230-6VRAGTBJh4gk-37" value="FAIL ACC&lt;div&gt;WRONG_SYSTEM_STATE_ERROR&lt;/div&gt;" style="rounded=0;whiteSpace=wrap;html=1;fillColor=#FF6666;" vertex="1" parent="1">
          <mxGeometry x="286" y="829" width="222" height="60" as="geometry" />
        </mxCell>
        <mxCell id="Bkob230-6VRAGTBJh4gk-38" value="" style="endArrow=classic;html=1;rounded=0;exitX=1;exitY=0.5;exitDx=0;exitDy=0;entryX=0;entryY=0.5;entryDx=0;entryDy=0;" edge="1" parent="1" source="Bkob230-6VRAGTBJh4gk-34" target="Bkob230-6VRAGTBJh4gk-37">
          <mxGeometry width="50" height="50" relative="1" as="geometry">
            <mxPoint x="206" y="861.5" as="sourcePoint" />
            <mxPoint x="287" y="861.5" as="targetPoint" />
          </mxGeometry>
        </mxCell>
        <mxCell id="Bkob230-6VRAGTBJh4gk-39" value="" style="endArrow=classic;html=1;rounded=0;exitX=0.5;exitY=1;exitDx=0;exitDy=0;entryX=0.5;entryY=0;entryDx=0;entryDy=0;" edge="1" parent="1" source="Bkob230-6VRAGTBJh4gk-6" target="Bkob230-6VRAGTBJh4gk-30">
          <mxGeometry width="50" height="50" relative="1" as="geometry">
            <mxPoint x="388" y="584" as="sourcePoint" />
            <mxPoint x="438" y="534" as="targetPoint" />
          </mxGeometry>
        </mxCell>
        <mxCell id="Bkob230-6VRAGTBJh4gk-40" value="" style="endArrow=classic;html=1;rounded=0;exitX=0.5;exitY=1;exitDx=0;exitDy=0;" edge="1" parent="1" source="Bkob230-6VRAGTBJh4gk-30" target="Bkob230-6VRAGTBJh4gk-33">
          <mxGeometry width="50" height="50" relative="1" as="geometry">
            <mxPoint x="388" y="584" as="sourcePoint" />
            <mxPoint x="438" y="534" as="targetPoint" />
          </mxGeometry>
        </mxCell>
        <mxCell id="Bkob230-6VRAGTBJh4gk-41" value="" style="endArrow=classic;html=1;rounded=0;exitX=0.5;exitY=1;exitDx=0;exitDy=0;" edge="1" parent="1" source="Bkob230-6VRAGTBJh4gk-33">
          <mxGeometry width="50" height="50" relative="1" as="geometry">
            <mxPoint x="388" y="584" as="sourcePoint" />
            <mxPoint x="128" y="827" as="targetPoint" />
          </mxGeometry>
        </mxCell>
        <mxCell id="Bkob230-6VRAGTBJh4gk-42" value="PUS Subservice&lt;div&gt;Supported&lt;/div&gt;" style="rounded=0;whiteSpace=wrap;html=1;" vertex="1" parent="1">
          <mxGeometry x="68" y="915" width="120" height="60" as="geometry" />
        </mxCell>
        <mxCell id="Bkob230-6VRAGTBJh4gk-43" value="FAIL ACC&lt;div&gt;UNSUPPORTED_SUBSERVICE_ID_ERROR&lt;/div&gt;" style="rounded=0;whiteSpace=wrap;html=1;fillColor=#FF6666;" vertex="1" parent="1">
          <mxGeometry x="290" y="915" width="259" height="60" as="geometry" />
        </mxCell>
        <mxCell id="Bkob230-6VRAGTBJh4gk-44" value="" style="endArrow=classic;html=1;rounded=0;exitX=1;exitY=0.5;exitDx=0;exitDy=0;entryX=0;entryY=0.5;entryDx=0;entryDy=0;" edge="1" parent="1" source="Bkob230-6VRAGTBJh4gk-42" target="Bkob230-6VRAGTBJh4gk-43">
          <mxGeometry width="50" height="50" relative="1" as="geometry">
            <mxPoint x="210" y="946.5" as="sourcePoint" />
            <mxPoint x="291" y="946.5" as="targetPoint" />
          </mxGeometry>
        </mxCell>
        <mxCell id="Bkob230-6VRAGTBJh4gk-45" value="SUCCESFULL&amp;nbsp;&lt;div&gt;ACC&lt;/div&gt;" style="rounded=0;whiteSpace=wrap;html=1;fillColor=#99FF99;" vertex="1" parent="1">
          <mxGeometry x="68" y="1016" width="120" height="60" as="geometry" />
        </mxCell>
        <mxCell id="Bkob230-6VRAGTBJh4gk-47" value="" style="endArrow=classic;html=1;rounded=0;exitX=0.5;exitY=1;exitDx=0;exitDy=0;entryX=0.5;entryY=0;entryDx=0;entryDy=0;" edge="1" parent="1" source="Bkob230-6VRAGTBJh4gk-34" target="Bkob230-6VRAGTBJh4gk-42">
          <mxGeometry width="50" height="50" relative="1" as="geometry">
            <mxPoint x="-140" y="933" as="sourcePoint" />
            <mxPoint x="-90" y="883" as="targetPoint" />
          </mxGeometry>
        </mxCell>
        <mxCell id="Bkob230-6VRAGTBJh4gk-48" value="" style="endArrow=classic;html=1;rounded=0;exitX=0.5;exitY=1;exitDx=0;exitDy=0;entryX=0.5;entryY=0;entryDx=0;entryDy=0;" edge="1" parent="1" source="Bkob230-6VRAGTBJh4gk-42" target="Bkob230-6VRAGTBJh4gk-45">
          <mxGeometry width="50" height="50" relative="1" as="geometry">
            <mxPoint x="388" y="884" as="sourcePoint" />
            <mxPoint x="438" y="834" as="targetPoint" />
          </mxGeometry>
        </mxCell>
        <mxCell id="Bkob230-6VRAGTBJh4gk-49" value="Send Message to Specific Service Task" style="rounded=0;whiteSpace=wrap;html=1;" vertex="1" parent="1">
          <mxGeometry x="68" y="1112" width="120" height="60" as="geometry" />
        </mxCell>
        <mxCell id="Bkob230-6VRAGTBJh4gk-50" value="" style="endArrow=classic;html=1;rounded=0;exitX=1;exitY=0.5;exitDx=0;exitDy=0;entryX=0;entryY=0.5;entryDx=0;entryDy=0;" edge="1" parent="1" source="Bkob230-6VRAGTBJh4gk-49" target="Bkob230-6VRAGTBJh4gk-51">
          <mxGeometry width="50" height="50" relative="1" as="geometry">
            <mxPoint x="206" y="1139.5" as="sourcePoint" />
            <mxPoint x="287" y="1139.5" as="targetPoint" />
          </mxGeometry>
        </mxCell>
        <mxCell id="Bkob230-6VRAGTBJh4gk-51" value="FAIL COMPLETION&lt;div&gt;PUS_PROCESS_BUSY_ERROR&lt;/div&gt;" style="rounded=0;whiteSpace=wrap;html=1;fillColor=#FF6666;" vertex="1" parent="1">
          <mxGeometry x="290" y="1112" width="232" height="60" as="geometry" />
        </mxCell>
        <mxCell id="Bkob230-6VRAGTBJh4gk-52" value="" style="endArrow=classic;html=1;rounded=0;exitX=0.5;exitY=1;exitDx=0;exitDy=0;entryX=0.5;entryY=0;entryDx=0;entryDy=0;" edge="1" parent="1" source="Bkob230-6VRAGTBJh4gk-45" target="Bkob230-6VRAGTBJh4gk-49">
          <mxGeometry width="50" height="50" relative="1" as="geometry">
            <mxPoint x="388" y="884" as="sourcePoint" />
            <mxPoint x="438" y="834" as="targetPoint" />
          </mxGeometry>
        </mxCell>
        <mxCell id="Bkob230-6VRAGTBJh4gk-53" value="Successfully Execute&amp;nbsp;&lt;div&gt;Service&lt;/div&gt;" style="rounded=0;whiteSpace=wrap;html=1;" vertex="1" parent="1">
          <mxGeometry x="68" y="1218" width="120" height="60" as="geometry" />
        </mxCell>
        <mxCell id="Bkob230-6VRAGTBJh4gk-54" value="SUCCESFULL&amp;nbsp;&lt;div&gt;COMPLETION&lt;/div&gt;" style="rounded=0;whiteSpace=wrap;html=1;fillColor=#99FF99;" vertex="1" parent="1">
          <mxGeometry x="68" y="1316" width="120" height="60" as="geometry" />
        </mxCell>
        <mxCell id="Bkob230-6VRAGTBJh4gk-55" value="" style="endArrow=classic;html=1;rounded=0;exitX=0.5;exitY=1;exitDx=0;exitDy=0;entryX=0.5;entryY=0;entryDx=0;entryDy=0;" edge="1" parent="1" source="Bkob230-6VRAGTBJh4gk-49" target="Bkob230-6VRAGTBJh4gk-53">
          <mxGeometry width="50" height="50" relative="1" as="geometry">
            <mxPoint x="388" y="1084" as="sourcePoint" />
            <mxPoint x="438" y="1034" as="targetPoint" />
          </mxGeometry>
        </mxCell>
        <mxCell id="Bkob230-6VRAGTBJh4gk-56" value="" style="endArrow=classic;html=1;rounded=0;exitX=0.5;exitY=1;exitDx=0;exitDy=0;entryX=0.5;entryY=0;entryDx=0;entryDy=0;" edge="1" parent="1" source="Bkob230-6VRAGTBJh4gk-53" target="Bkob230-6VRAGTBJh4gk-54">
          <mxGeometry width="50" height="50" relative="1" as="geometry">
            <mxPoint x="388" y="1084" as="sourcePoint" />
            <mxPoint x="438" y="1034" as="targetPoint" />
          </mxGeometry>
        </mxCell>
        <mxCell id="Bkob230-6VRAGTBJh4gk-57" value="FAIL COMPLETION" style="rounded=0;whiteSpace=wrap;html=1;fillColor=#FF6666;" vertex="1" parent="1">
          <mxGeometry x="282" y="1218" width="232" height="60" as="geometry" />
        </mxCell>
        <mxCell id="Bkob230-6VRAGTBJh4gk-58" value="" style="endArrow=classic;html=1;rounded=0;exitX=1;exitY=0.5;exitDx=0;exitDy=0;" edge="1" parent="1" source="Bkob230-6VRAGTBJh4gk-53">
          <mxGeometry width="50" height="50" relative="1" as="geometry">
            <mxPoint x="201" y="1247.5" as="sourcePoint" />
            <mxPoint x="282" y="1247.5" as="targetPoint" />
          </mxGeometry>
        </mxCell>
        <mxCell id="Bkob230-6VRAGTBJh4gk-59" value="UNSUPPORTED_ARGUMENT_ERROR" style="rounded=0;whiteSpace=wrap;html=1;fillColor=#FF6666;" vertex="1" parent="1">
          <mxGeometry x="584" y="1302" width="230" height="60" as="geometry" />
        </mxCell>
        <mxCell id="Bkob230-6VRAGTBJh4gk-61" value="NOT_ENOUGH_DATA_ERROR" style="rounded=0;whiteSpace=wrap;html=1;fillColor=#FF6666;" vertex="1" parent="1">
          <mxGeometry x="584" y="1218" width="206" height="60" as="geometry" />
        </mxCell>
        <mxCell id="Bkob230-6VRAGTBJh4gk-62" value="UNSUPPORTED_INDEX_ERROR" style="rounded=0;whiteSpace=wrap;html=1;fillColor=#FF6666;" vertex="1" parent="1">
          <mxGeometry x="584" y="1383" width="234" height="60" as="geometry" />
        </mxCell>
        <mxCell id="Bkob230-6VRAGTBJh4gk-63" value="FPGA_MESSAGE_ERROR" style="rounded=0;whiteSpace=wrap;html=1;fillColor=#FF6666;" vertex="1" parent="1">
          <mxGeometry x="584" y="1469" width="206" height="60" as="geometry" />
        </mxCell>
        <mxCell id="Bkob230-6VRAGTBJh4gk-64" value="NULL_POINTER_DEREFRERENCING_ERROR" style="rounded=0;whiteSpace=wrap;html=1;fillColor=#FF6666;" vertex="1" parent="1">
          <mxGeometry x="584" y="1555" width="282" height="60" as="geometry" />
        </mxCell>
        <mxCell id="Bkob230-6VRAGTBJh4gk-65" value="" style="endArrow=classic;html=1;rounded=0;exitX=1;exitY=0.5;exitDx=0;exitDy=0;entryX=0;entryY=0.5;entryDx=0;entryDy=0;" edge="1" parent="1" source="Bkob230-6VRAGTBJh4gk-57" target="Bkob230-6VRAGTBJh4gk-61">
          <mxGeometry width="50" height="50" relative="1" as="geometry">
            <mxPoint x="388" y="1384" as="sourcePoint" />
            <mxPoint x="438" y="1334" as="targetPoint" />
          </mxGeometry>
        </mxCell>
        <mxCell id="Bkob230-6VRAGTBJh4gk-66" value="" style="endArrow=classic;html=1;rounded=0;exitX=1;exitY=0.5;exitDx=0;exitDy=0;entryX=0;entryY=0.5;entryDx=0;entryDy=0;" edge="1" parent="1" source="Bkob230-6VRAGTBJh4gk-57" target="Bkob230-6VRAGTBJh4gk-59">
          <mxGeometry width="50" height="50" relative="1" as="geometry">
            <mxPoint x="388" y="1384" as="sourcePoint" />
            <mxPoint x="438" y="1334" as="targetPoint" />
          </mxGeometry>
        </mxCell>
        <mxCell id="Bkob230-6VRAGTBJh4gk-67" value="" style="endArrow=classic;html=1;rounded=0;exitX=1;exitY=0.5;exitDx=0;exitDy=0;entryX=0;entryY=0.5;entryDx=0;entryDy=0;" edge="1" parent="1" source="Bkob230-6VRAGTBJh4gk-57" target="Bkob230-6VRAGTBJh4gk-62">
          <mxGeometry width="50" height="50" relative="1" as="geometry">
            <mxPoint x="388" y="1384" as="sourcePoint" />
            <mxPoint x="438" y="1334" as="targetPoint" />
          </mxGeometry>
        </mxCell>
        <mxCell id="Bkob230-6VRAGTBJh4gk-68" value="" style="endArrow=classic;html=1;rounded=0;exitX=1;exitY=0.5;exitDx=0;exitDy=0;entryX=0;entryY=0.5;entryDx=0;entryDy=0;" edge="1" parent="1" source="Bkob230-6VRAGTBJh4gk-57" target="Bkob230-6VRAGTBJh4gk-63">
          <mxGeometry width="50" height="50" relative="1" as="geometry">
            <mxPoint x="388" y="1384" as="sourcePoint" />
            <mxPoint x="438" y="1334" as="targetPoint" />
          </mxGeometry>
        </mxCell>
        <mxCell id="Bkob230-6VRAGTBJh4gk-69" value="" style="endArrow=classic;html=1;rounded=0;exitX=1;exitY=0.5;exitDx=0;exitDy=0;entryX=0;entryY=0.5;entryDx=0;entryDy=0;" edge="1" parent="1" source="Bkob230-6VRAGTBJh4gk-57" target="Bkob230-6VRAGTBJh4gk-64">
          <mxGeometry width="50" height="50" relative="1" as="geometry">
            <mxPoint x="388" y="1384" as="sourcePoint" />
            <mxPoint x="438" y="1334" as="targetPoint" />
          </mxGeometry>
        </mxCell>
        <mxCell id="Bkob230-6VRAGTBJh4gk-71" value="" style="endArrow=classic;html=1;rounded=0;exitX=1;exitY=0.5;exitDx=0;exitDy=0;entryX=0;entryY=0.5;entryDx=0;entryDy=0;" edge="1" parent="1">
          <mxGeometry width="50" height="50" relative="1" as="geometry">
            <mxPoint x="189" y="285.5" as="sourcePoint" />
            <mxPoint x="286" y="285.5" as="targetPoint" />
          </mxGeometry>
        </mxCell>
      </root>
    </mxGraphModel>
  </diagram>
</mxfile>
